 <svg  version="1.0" xmlns="http://www.w3.org/2000/svg"  width="300.000000pt" height="300.000000pt" viewBox="0 0 300.000000 300.000000"  preserveAspectRatio="xMidYMid meet">  <g transform="translate(0.000000,300.000000) scale(0.100000,-0.100000)" fill="#bc2626" stroke="none"> <path d="M1458 2659 c-5 -12 -2 -66 5 -103 1 -6 -7 -10 -19 -8 -18 2 -20 -2 -16 -27 3 -21 -3 -39 -21 -63 -14 -18 -28 -45 -32 -60 -4 -15 -18 -34 -31 -43 -27 -18 -31 -35 -8 -35 18 0 15 -34 -4 -36 -6 -1 -16 -2 -21 -3 -5 0 -11 -10 -14 -21 -4 -15 0 -20 14 -20 26 0 24 -16 -5 -36 -29 -19 -37 -54 -16 -71 9 -8 11 -15 5 -20 -5 -5 -10 -15 -10 -23 0 -9 -11 -16 -27 -18 -26 -3 -41 -22 -18 -22 6 0 10 -7 10 -15 0 -10 -10 -15 -30 -15 -33 0 -40 -19 -15 -40 20 -17 2 -40 -31 -40 -13 0 -24 -4 -24 -9 0 -17 -45 -21 -56 -6 -10 13 -12 13 -17 -5 -7 -28 -34 -25 -41 5 -7 26 -26 35 -26 11 0 -27 -24 -36 -64 -25 -27 7 -42 7 -49 0 -8 -8 -16 -6 -29 6 -11 10 -18 12 -18 4 0 -8 -12 -9 -39 -5 -33 5 -39 3 -44 -15 -7 -27 -28 -26 -102 4 -74 31 -95 33 -72 7 10 -10 17 -22 17 -25 0 -15 -54 -6 -66 11 -12 16 -14 16 -28 -3 -15 -19 -17 -19 -29 -3 -8 10 -17 15 -20 12 -3 -3 -14 -1 -24 4 -12 7 -31 6 -61 -5 -34 -11 -47 -12 -58 -3 -7 7 -21 9 -30 6 -10 -4 -25 1 -35 9 -10 10 -30 15 -51 13 l-33 -3 49 -23 c27 -12 57 -22 67 -22 10 0 22 -7 27 -16 5 -9 18 -17 28 -19 42 -4 144 -52 144 -68 0 -7 14 -18 30 -24 17 -6 30 -7 30 -2 0 5 5 9 10 9 6 0 10 -7 10 -15 0 -9 9 -15 22 -15 11 0 36 -11 54 -25 18 -14 37 -25 43 -25 15 0 85 -34 89 -42 2 -5 10 -8 19 -8 10 0 12 -6 8 -20 -5 -15 -3 -18 9 -14 9 4 18 0 22 -10 4 -11 13 -14 30 -10 15 4 24 2 24 -5 0 -6 5 -10 10 -8 6 1 16 -9 23 -23 7 -14 22 -26 35 -28 21 -3 21 -5 7 -33 -9 -16 -15 -45 -13 -65 2 -26 -3 -40 -17 -51 -14 -9 -20 -26 -21 -53 0 -22 3 -40 8 -40 18 0 7 -21 -17 -32 -14 -6 -28 -22 -31 -34 -3 -13 -13 -25 -22 -27 -15 -4 -15 -5 1 -6 21 -1 23 -19 2 -27 -8 -4 -15 -12 -15 -20 0 -8 -5 -14 -11 -14 -7 0 -9 -10 -7 -25 3 -14 1 -25 -3 -25 -5 0 -9 -6 -9 -12 0 -7 -7 -26 -15 -42 -9 -16 -13 -37 -10 -48 7 -19 -15 -48 -37 -49 -7 0 -3 -4 10 -9 26 -11 29 -30 4 -30 -10 0 -25 -13 -34 -28 -9 -15 -29 -40 -44 -55 -15 -15 -24 -30 -21 -33 11 -11 56 28 66 56 6 19 19 32 35 36 14 3 26 10 26 15 0 5 8 9 18 9 9 0 26 7 36 15 10 8 23 12 28 9 5 -3 20 6 33 20 13 14 30 23 38 20 8 -3 17 2 21 11 3 10 12 15 21 11 9 -3 19 3 25 15 6 11 15 17 21 14 5 -4 25 10 43 31 25 28 38 36 55 31 15 -4 27 2 41 20 11 15 26 23 34 20 8 -3 20 1 27 9 6 8 20 12 30 9 13 -4 22 2 34 24 16 33 30 39 38 19 6 -18 41 3 46 28 2 10 12 25 22 32 19 13 26 42 11 42 -4 0 -19 -11 -34 -25 -15 -14 -31 -25 -35 -25 -22 0 -113 -46 -113 -57 0 -7 -8 -13 -17 -13 -24 -1 -89 -36 -85 -47 1 -4 -10 -8 -24 -9 -15 -1 -35 -12 -46 -25 -13 -16 -21 -20 -25 -11 -3 9 -13 6 -36 -10 -18 -13 -34 -23 -37 -23 -15 -2 -97 -50 -107 -64 -16 -23 -29 -5 -15 22 27 52 32 77 17 77 -8 0 -15 5 -15 10 0 6 5 10 10 10 6 0 10 7 10 15 0 8 9 15 20 15 19 0 21 5 24 53 1 10 7 21 14 26 7 4 14 18 17 31 6 33 37 112 52 135 19 29 16 44 -8 38 -16 -4 -20 -2 -17 8 3 8 13 13 22 13 15 -2 20 7 17 34 -1 6 3 12 10 12 16 0 38 31 39 53 0 9 -4 17 -10 17 -5 0 -10 9 -10 20 0 12 -7 20 -16 20 -9 0 -29 11 -46 25 -31 26 -48 32 -48 15 0 -20 -19 -9 -22 13 -2 16 -15 26 -47 37 -25 8 -56 25 -70 38 -13 12 -32 21 -41 20 -10 -2 -31 12 -49 31 -25 26 -34 31 -45 22 -15 -13 -32 1 -21 18 5 9 -26 24 -51 25 -6 1 -18 9 -27 18 -10 9 -24 15 -32 12 -8 -4 -15 -1 -15 5 0 6 -5 10 -11 8 -6 -1 -14 4 -17 12 -3 10 1 13 17 8 11 -3 21 -1 21 4 0 5 7 9 15 9 8 0 15 -4 15 -10 0 -6 54 -9 135 -9 110 0 135 3 135 15 0 8 7 14 15 14 8 0 15 -7 15 -15 0 -18 37 -20 43 -2 3 9 7 9 20 -1 9 -8 21 -11 27 -7 5 3 45 6 87 6 47 0 80 5 84 11 6 9 12 8 24 -2 14 -12 18 -12 25 1 7 10 12 11 20 3 8 -8 18 -8 36 0 24 11 29 23 26 60 -2 12 3 16 12 13 17 -7 75 131 79 187 1 11 12 30 25 43 23 23 23 25 6 38 -18 13 -18 14 7 23 31 12 39 28 32 65 -4 22 -2 26 11 21 9 -3 17 -1 17 5 3 20 5 26 18 50 11 20 11 25 0 32 -11 7 -10 9 5 9 15 0 16 2 6 15 -9 11 -10 19 -3 26 17 17 53 -12 53 -41 0 -36 41 -130 57 -130 17 0 29 -30 16 -39 -6 -3 4 -38 24 -86 18 -44 33 -76 33 -71 0 6 9 0 21 -12 11 -13 19 -33 18 -45 -4 -35 34 -129 54 -135 9 -2 17 -12 17 -21 0 -13 13 -16 83 -16 45 0 85 3 88 8 3 4 20 0 38 -10 27 -15 33 -16 40 -4 7 11 13 12 23 4 15 -13 238 -15 238 -2 0 14 28 11 33 -3 3 -10 9 -10 26 0 15 9 26 10 35 3 6 -5 29 -10 51 -10 75 -1 95 -10 69 -32 -13 -11 -18 -11 -21 -1 -6 17 -30 15 -37 -3 -3 -8 -16 -15 -29 -15 -13 0 -37 -14 -55 -31 -17 -17 -35 -28 -41 -25 -5 3 -12 -1 -15 -10 -3 -8 -11 -14 -18 -13 -22 4 -89 -34 -84 -47 3 -8 -5 -12 -22 -12 -15 1 -43 -9 -62 -21 l-35 -21 73 0 c53 0 72 3 72 13 0 14 72 59 87 55 4 -2 25 14 46 35 26 25 48 37 67 37 30 0 130 47 130 61 0 5 18 9 39 9 37 0 93 24 131 56 8 7 27 16 43 19 15 4 27 12 27 17 0 11 -79 6 -112 -7 -12 -5 -18 -2 -18 7 0 11 -11 14 -37 13 -32 -1 -39 -5 -47 -28 -11 -30 -27 -35 -46 -12 -7 8 -16 12 -21 9 -5 -3 -17 0 -27 5 -13 7 -22 7 -30 -1 -9 -9 -15 -9 -24 0 -8 8 -17 8 -30 1 -21 -11 -95 -8 -117 5 -8 5 -16 4 -20 -2 -4 -7 -19 -8 -44 -2 -20 4 -39 4 -42 -1 -3 -4 -22 -13 -43 -19 -31 -8 -39 -7 -49 7 -13 17 -70 20 -176 8 -49 -6 -49 -6 -43 20 8 30 -4 32 -29 5 -12 -14 -22 -17 -30 -10 -6 5 -15 7 -18 4 -9 -10 -20 43 -15 71 4 19 1 25 -12 25 -15 0 -25 12 -35 40 -1 3 -5 12 -8 20 -4 8 -11 35 -15 60 -5 29 -13 45 -22 45 -10 0 -16 12 -18 35 -2 19 -10 43 -19 52 -8 9 -12 22 -8 27 3 6 1 11 -4 11 -6 0 -11 7 -11 15 0 8 -5 15 -11 15 -7 0 -9 12 -7 32 3 20 0 38 -8 46 -8 7 -14 22 -14 32 0 10 -7 20 -15 24 -9 3 -15 19 -15 41 0 19 -4 35 -10 35 -5 0 -10 9 -10 20 0 11 -5 20 -11 20 -7 0 -9 9 -5 23 6 27 -17 69 -26 46z"/> <path d="M1467 2021 c-2 -10 0 -26 5 -35 8 -14 4 -24 -16 -45 -20 -21 -25 -34 -22 -66 2 -22 -2 -47 -9 -55 -6 -8 -17 -34 -24 -57 -10 -35 -16 -43 -36 -43 -13 0 -27 -5 -31 -11 -4 -7 -23 -8 -52 -4 -31 5 -47 3 -52 -5 -10 -16 -33 -2 -26 16 3 8 1 14 -4 14 -5 0 -12 -9 -15 -21 -6 -19 -8 -19 -24 -5 -16 14 -19 14 -34 -1 -13 -13 -19 -15 -29 -5 -7 7 -18 12 -26 12 -8 0 -20 7 -26 16 -8 10 -23 14 -41 12 -28 -3 -23 -7 54 -51 47 -26 91 -45 99 -42 8 3 21 0 30 -7 8 -7 22 -13 31 -13 11 0 15 -8 14 -23 -3 -20 0 -21 17 -12 11 6 25 8 30 5 14 -9 12 -89 -2 -104 -10 -11 -10 -14 0 -18 6 -3 12 -11 12 -18 0 -7 -6 -15 -12 -18 -9 -3 -7 -10 7 -20 20 -16 19 -17 -12 -29 -17 -6 -34 -20 -36 -30 -3 -10 -14 -18 -26 -18 -12 0 -22 -4 -22 -10 -3 -19 -5 -25 -17 -47 -17 -31 0 -30 42 2 18 14 47 30 64 36 18 6 32 18 32 26 0 8 8 13 18 12 29 -4 52 12 52 37 0 12 8 29 18 36 21 14 38 68 23 68 -5 0 -13 -5 -16 -10 -8 -13 -66 -43 -71 -37 -3 3 6 33 20 67 29 72 27 79 -37 111 -21 11 -37 22 -34 25 2 3 35 5 71 5 42 1 69 5 71 12 13 47 49 137 54 137 3 0 19 -32 36 -71 31 -74 51 -94 67 -66 11 21 28 22 28 2 0 -11 11 -15 38 -15 l37 0 -30 -20 -30 -20 43 0 c30 0 42 4 42 14 0 24 21 30 27 7 7 -29 43 -27 89 4 21 14 67 40 103 58 59 29 63 32 38 35 -16 2 -35 -2 -43 -9 -8 -6 -29 -13 -47 -15 -17 -2 -33 -9 -35 -14 -2 -6 -11 -10 -19 -10 -11 0 -14 6 -10 20 4 16 1 20 -11 16 -49 -14 -112 -17 -132 -6 -12 6 -36 13 -54 13 -26 2 -32 6 -34 30 -2 19 -8 27 -20 25 -18 -3 -20 11 -7 51 6 21 5 23 -14 18 -28 -7 -33 4 -20 42 9 26 7 39 -15 86 -13 30 -27 55 -29 55 -3 0 -7 -8 -10 -19z"/> <path d="M1510 1560 c0 -12 9 -39 21 -62 30 -59 31 -86 3 -105 -15 -9 -24 -25 -24 -41 0 -20 3 -23 12 -14 7 7 18 12 25 12 22 0 14 -26 -12 -40 -18 -10 -25 -21 -25 -44 0 -43 15 -66 24 -38 l7 21 48 -19 c27 -10 51 -17 54 -14 2 3 7 -7 11 -21 4 -14 13 -25 21 -25 9 0 12 6 9 15 -7 18 -7 18 58 1 98 -26 118 -37 118 -59 0 -19 1 -19 13 -4 13 18 39 12 204 -43 33 -11 55 -14 61 -8 6 6 12 6 16 -1 4 -6 16 -11 28 -11 36 0 168 -64 168 -81 0 -16 58 -23 285 -34 59 -3 71 -6 79 -24 7 -15 18 -21 43 -21 38 0 44 -16 11 -30 l-23 -9 23 0 c34 -1 38 -28 9 -59 -17 -18 -24 -34 -21 -47 11 -42 -16 -57 -117 -66 -52 -4 -114 -10 -139 -13 -42 -4 -405 -10 -477 -7 -26 1 -31 4 -27 19 5 16 5 16 -8 1 -18 -22 -85 -23 -97 -2 -7 13 -9 13 -14 -1 -4 -10 -18 -16 -41 -16 -27 0 -34 3 -30 15 7 18 -7 20 -24 3 -15 -15 -91 -19 -115 -6 -14 7 -23 5 -36 -6 -32 -29 -40 -20 -34 39 6 54 6 55 -21 55 -16 0 -26 -5 -25 -12 5 -37 -1 -49 -21 -43 -14 5 -20 2 -20 -9 0 -9 7 -16 15 -16 8 0 15 -4 15 -10 0 -5 -7 -10 -15 -10 -8 0 -15 -9 -15 -20 0 -20 7 -20 529 -20 414 0 531 3 535 13 5 9 7 9 12 -1 4 -9 10 -10 19 -2 16 14 75 1 75 -16 0 -21 14 -17 25 8 12 26 35 36 35 14 0 -22 17 -20 25 3 3 10 15 21 26 24 17 5 20 2 16 -14 -4 -14 1 -21 19 -25 14 -4 28 -4 31 0 4 3 -1 6 -9 6 -13 0 -16 24 -17 162 -1 89 -5 166 -9 172 -3 6 -5 19 -4 29 2 9 -2 17 -7 17 -6 0 -11 -16 -11 -35 0 -19 -5 -35 -10 -35 -7 0 -9 14 -5 38 5 27 4 33 -4 22 -6 -8 -11 -23 -11 -32 0 -21 -7 -22 -40 -3 -36 20 -70 19 -70 -2 0 -13 -3 -14 -8 -6 -9 14 -73 18 -115 8 -24 -6 -29 -4 -34 14 -6 24 -50 51 -83 51 -11 0 -20 5 -20 10 0 6 7 10 15 10 8 0 15 5 15 11 0 6 -7 8 -16 5 -9 -3 -18 -6 -20 -6 -2 0 -4 -9 -4 -20 0 -11 -4 -20 -10 -20 -5 0 -10 4 -10 8 0 5 -21 8 -47 8 -42 -1 -48 2 -51 22 -2 14 -10 22 -22 22 -10 0 -22 5 -25 10 -3 6 -20 10 -36 10 -16 0 -32 6 -35 14 -3 8 -13 12 -24 9 -10 -3 -21 0 -24 5 -3 6 -24 8 -46 5 -43 -6 -90 16 -90 42 0 19 -19 19 -26 0 -4 -8 -11 -15 -18 -15 -15 1 -56 36 -56 48 0 14 -31 24 -44 14 -6 -5 -27 -7 -48 -5 -29 4 -38 10 -43 31 l-7 27 -9 -23 c-11 -28 -35 -24 -32 6 2 16 -2 19 -18 15 -12 -4 -25 0 -29 7 -7 11 -11 11 -24 0 -19 -15 -21 -14 -30 23 -4 16 -2 27 4 27 5 0 10 11 10 25 0 16 -6 25 -15 25 -24 0 -17 18 15 37 17 9 30 25 30 35 0 15 8 18 45 18 25 0 45 4 45 8 0 14 47 31 69 25 15 -4 21 -1 21 12 0 12 6 16 20 12 11 -3 23 -1 26 4 9 15 22 10 29 -12 5 -15 10 -18 20 -9 9 7 20 8 32 3 24 -12 73 -9 102 6 20 11 25 11 33 -3 5 -9 14 -13 21 -9 6 4 46 8 87 9 41 1 90 5 108 9 26 6 32 4 32 -10 0 -9 -9 -19 -20 -22 -30 -8 -24 -23 9 -23 24 0 28 -3 24 -20 -7 -25 11 -26 29 -2 7 9 25 23 41 29 28 13 34 32 18 62 -8 14 -21 16 -88 13 -92 -4 -98 -4 -230 6 -97 7 -102 6 -108 -13 -5 -18 -6 -19 -18 -3 -18 22 -144 28 -158 7 -6 -10 -11 -11 -16 -3 -8 12 -103 24 -103 14 0 -3 5 -11 11 -17 6 -6 8 -16 5 -22 -10 -16 -36 -1 -47 25 -4 13 -15 24 -24 24 -18 0 -19 -12 -3 -28 17 -17 3 -25 -21 -12 -18 9 -21 8 -21 -7 0 -13 -7 -9 -31 15 -36 37 -59 41 -59 12z"/> <path d="M2000 1185 c0 -13 68 -26 75 -15 2 3 -14 11 -36 17 -30 8 -39 7 -39 -2z"/> <path d="M2298 1078 c3 -14 8 -16 15 -9 6 6 19 11 29 11 33 0 18 16 -16 17 -29 1 -33 -2 -28 -19z"/> <path d="M1769 1037 c-8 -6 -18 -20 -22 -29 -4 -10 -14 -16 -26 -13 -11 2 -36 -7 -56 -21 -20 -13 -40 -24 -45 -24 -6 0 -10 -9 -10 -20 0 -11 -7 -20 -15 -20 -8 0 -15 5 -15 12 0 6 -3 8 -6 5 -4 -4 -3 -12 3 -19 5 -7 9 -25 8 -40 0 -16 4 -28 10 -28 5 0 19 -18 29 -40 11 -22 23 -40 28 -40 4 0 8 -9 8 -21 0 -19 5 -20 93 -18 103 2 127 6 127 20 0 6 -4 8 -9 4 -6 -3 -15 3 -21 12 -8 13 -13 14 -16 6 -7 -17 -34 -17 -34 -1 0 7 -7 2 -16 -10 -17 -24 -39 -20 -29 5 4 13 -2 15 -40 10 -38 -4 -45 -2 -40 10 3 9 -5 26 -19 40 -49 49 -19 128 55 144 24 6 51 17 60 24 13 13 20 12 50 -11 19 -14 53 -35 76 -46 38 -19 42 -24 36 -47 -14 -56 -68 -114 -68 -73 0 18 -33 52 -50 52 -13 0 -10 -7 9 -33 15 -19 26 -39 26 -45 0 -13 35 -34 43 -26 3 3 12 -3 19 -15 8 -13 23 -21 38 -20 24 0 24 1 5 10 -12 6 -27 20 -34 31 -12 19 -10 23 9 38 13 10 20 22 16 29 -4 6 -3 11 2 11 5 0 16 19 25 42 19 47 10 62 -31 54 -17 -2 -26 2 -31 17 -5 12 -18 21 -36 23 -19 2 -41 16 -60 38 -25 30 -33 34 -46 23z"/> <path d="M2524 1025 c3 -9 6 -18 6 -19 0 -1 19 0 41 2 28 3 44 0 50 -9 6 -10 9 -11 9 -1 0 6 8 13 18 13 9 1 -5 5 -33 10 -27 4 -60 11 -74 14 -19 5 -22 3 -17 -10z"/> <path d="M2012 889 c-12 -22 -10 -144 1 -156 12 -11 130 -13 144 -1 11 9 16 9 23 -3 8 -11 12 -11 25 6 20 27 17 175 -4 175 -12 0 -29 -50 -20 -56 6 -3 5 -11 -2 -20 -9 -11 -8 -19 6 -34 14 -15 16 -23 7 -32 -15 -15 -82 -17 -106 -4 -14 8 -20 8 -23 -1 -5 -15 -33 -18 -33 -4 0 6 5 13 11 17 11 6 8 37 -8 103 l-8 33 -13 -23z"/> <path d="M2311 819 c-34 -51 -60 -94 -57 -96 8 -8 56 29 50 38 -3 5 4 9 16 9 12 0 30 5 40 10 14 8 30 4 66 -15 26 -14 53 -30 61 -36 24 -21 24 -3 -1 24 -13 14 -22 28 -20 30 2 2 -7 21 -21 41 -14 20 -25 40 -25 45 0 9 -33 41 -42 41 -3 0 -34 -41 -67 -91z m107 11 c35 -55 35 -57 -9 -35 -22 12 -34 13 -50 5 -32 -18 -46 -7 -22 17 12 12 24 30 28 42 3 12 9 21 13 21 4 0 22 -23 40 -50z"/> <path d="M2532 806 l3 -81 66 -3 c52 -2 69 0 80 14 12 15 9 20 -24 49 -20 18 -37 35 -37 39 0 12 28 6 40 -9 21 -25 30 -17 30 24 0 47 -10 52 -99 50 l-62 -2 3 -81z m73 54 c10 -11 16 -22 13 -25 -8 -8 -58 19 -58 33 0 19 25 14 45 -8z m63 -13 c3 -15 0 -16 -22 -6 -32 15 -34 32 -4 27 13 -2 24 -11 26 -21z m-48 -52 c24 -25 39 -45 32 -46 -7 -1 -23 -1 -37 -1 -61 0 -61 0 -61 47 0 26 5 45 11 45 6 0 31 -20 55 -45z"/> </g> </svg> 